<mxfile host="app.diagrams.net" modified="2023-10-09T11:18:35.661Z" agent="Mozilla/5.0 (Windows NT 10.0; Win64; x64) AppleWebKit/537.36 (KHTML, like Gecko) Chrome/117.0.0.0 Safari/537.36" etag="uY4WWBBddVSdw2ZtQWI5" version="21.7.4" type="device">
  <diagram name="1 oldal" id="L7yjX8zzBqXoMFaeLPIa">
    <mxGraphModel dx="1434" dy="790" grid="1" gridSize="10" guides="1" tooltips="1" connect="1" arrows="1" fold="1" page="1" pageScale="1" pageWidth="827" pageHeight="1169" math="0" shadow="0">
      <root>
        <mxCell id="0" />
        <mxCell id="1" parent="0" />
        <mxCell id="ZAcXtEX41ON2BPVNQsae-33" value="költő" style="rounded=0;whiteSpace=wrap;html=1;sketch=1;hachureGap=4;jiggle=2;curveFitting=1;fontFamily=Architects Daughter;fontSource=https%3A%2F%2Ffonts.googleapis.com%2Fcss%3Ffamily%3DArchitects%2BDaughter;fontSize=20;" vertex="1" parent="1">
          <mxGeometry x="179" y="340" width="90" height="50" as="geometry" />
        </mxCell>
        <mxCell id="ZAcXtEX41ON2BPVNQsae-34" value="név" style="ellipse;whiteSpace=wrap;html=1;sketch=1;hachureGap=4;jiggle=2;curveFitting=1;fontFamily=Architects Daughter;fontSource=https%3A%2F%2Ffonts.googleapis.com%2Fcss%3Ffamily%3DArchitects%2BDaughter;fontSize=20;" vertex="1" parent="1">
          <mxGeometry x="49" y="410" width="80" height="40" as="geometry" />
        </mxCell>
        <mxCell id="ZAcXtEX41ON2BPVNQsae-35" value="&lt;u&gt;id&lt;/u&gt;" style="ellipse;whiteSpace=wrap;html=1;sketch=1;hachureGap=4;jiggle=2;curveFitting=1;fontFamily=Architects Daughter;fontSource=https%3A%2F%2Ffonts.googleapis.com%2Fcss%3Ffamily%3DArchitects%2BDaughter;fontSize=20;" vertex="1" parent="1">
          <mxGeometry x="59" y="307.5" width="70" height="45" as="geometry" />
        </mxCell>
        <mxCell id="ZAcXtEX41ON2BPVNQsae-36" value="költemény" style="rounded=0;whiteSpace=wrap;html=1;sketch=1;hachureGap=4;jiggle=2;curveFitting=1;fontFamily=Architects Daughter;fontSource=https%3A%2F%2Ffonts.googleapis.com%2Fcss%3Ffamily%3DArchitects%2BDaughter;fontSize=20;" vertex="1" parent="1">
          <mxGeometry x="549" y="360" width="110" height="50" as="geometry" />
        </mxCell>
        <mxCell id="ZAcXtEX41ON2BPVNQsae-37" value="név" style="ellipse;whiteSpace=wrap;html=1;sketch=1;hachureGap=4;jiggle=2;curveFitting=1;fontFamily=Architects Daughter;fontSource=https%3A%2F%2Ffonts.googleapis.com%2Fcss%3Ffamily%3DArchitects%2BDaughter;fontSize=20;" vertex="1" parent="1">
          <mxGeometry x="689" y="440" width="80" height="40" as="geometry" />
        </mxCell>
        <mxCell id="ZAcXtEX41ON2BPVNQsae-38" value="&lt;u&gt;Isbn&lt;/u&gt;" style="ellipse;whiteSpace=wrap;html=1;sketch=1;hachureGap=4;jiggle=2;curveFitting=1;fontFamily=Architects Daughter;fontSource=https%3A%2F%2Ffonts.googleapis.com%2Fcss%3Ffamily%3DArchitects%2BDaughter;fontSize=20;" vertex="1" parent="1">
          <mxGeometry x="694" y="290" width="70" height="45" as="geometry" />
        </mxCell>
        <mxCell id="ZAcXtEX41ON2BPVNQsae-39" value="" style="endArrow=none;html=1;rounded=0;sketch=1;hachureGap=4;jiggle=2;curveFitting=1;fontFamily=Architects Daughter;fontSource=https%3A%2F%2Ffonts.googleapis.com%2Fcss%3Ffamily%3DArchitects%2BDaughter;fontSize=16;entryX=0.133;entryY=1.1;entryDx=0;entryDy=0;entryPerimeter=0;exitX=0.75;exitY=0;exitDx=0;exitDy=0;exitPerimeter=0;" edge="1" parent="1" source="ZAcXtEX41ON2BPVNQsae-34" target="ZAcXtEX41ON2BPVNQsae-33">
          <mxGeometry width="50" height="50" relative="1" as="geometry">
            <mxPoint x="369" y="700" as="sourcePoint" />
            <mxPoint x="419" y="650" as="targetPoint" />
          </mxGeometry>
        </mxCell>
        <mxCell id="ZAcXtEX41ON2BPVNQsae-40" value="" style="endArrow=none;html=1;rounded=0;sketch=1;hachureGap=4;jiggle=2;curveFitting=1;fontFamily=Architects Daughter;fontSource=https%3A%2F%2Ffonts.googleapis.com%2Fcss%3Ffamily%3DArchitects%2BDaughter;fontSize=16;entryX=0;entryY=0.5;entryDx=0;entryDy=0;exitX=1;exitY=0.5;exitDx=0;exitDy=0;" edge="1" parent="1" source="ZAcXtEX41ON2BPVNQsae-35" target="ZAcXtEX41ON2BPVNQsae-33">
          <mxGeometry width="50" height="50" relative="1" as="geometry">
            <mxPoint x="189" y="520" as="sourcePoint" />
            <mxPoint x="211" y="485" as="targetPoint" />
          </mxGeometry>
        </mxCell>
        <mxCell id="ZAcXtEX41ON2BPVNQsae-41" value="" style="endArrow=none;html=1;rounded=0;sketch=1;hachureGap=4;jiggle=2;curveFitting=1;fontFamily=Architects Daughter;fontSource=https%3A%2F%2Ffonts.googleapis.com%2Fcss%3Ffamily%3DArchitects%2BDaughter;fontSize=16;entryX=1;entryY=1;entryDx=0;entryDy=0;exitX=0;exitY=0.5;exitDx=0;exitDy=0;" edge="1" parent="1" source="ZAcXtEX41ON2BPVNQsae-37" target="ZAcXtEX41ON2BPVNQsae-36">
          <mxGeometry width="50" height="50" relative="1" as="geometry">
            <mxPoint x="199" y="530" as="sourcePoint" />
            <mxPoint x="221" y="495" as="targetPoint" />
          </mxGeometry>
        </mxCell>
        <mxCell id="ZAcXtEX41ON2BPVNQsae-42" value="" style="endArrow=none;html=1;rounded=0;sketch=1;hachureGap=4;jiggle=2;curveFitting=1;fontFamily=Architects Daughter;fontSource=https%3A%2F%2Ffonts.googleapis.com%2Fcss%3Ffamily%3DArchitects%2BDaughter;fontSize=16;entryX=1;entryY=0.5;entryDx=0;entryDy=0;exitX=0;exitY=1;exitDx=0;exitDy=0;" edge="1" parent="1" source="ZAcXtEX41ON2BPVNQsae-38" target="ZAcXtEX41ON2BPVNQsae-36">
          <mxGeometry width="50" height="50" relative="1" as="geometry">
            <mxPoint x="699" y="470" as="sourcePoint" />
            <mxPoint x="669" y="420" as="targetPoint" />
          </mxGeometry>
        </mxCell>
        <mxCell id="ZAcXtEX41ON2BPVNQsae-43" value="költeménye" style="rhombus;whiteSpace=wrap;html=1;sketch=1;hachureGap=4;jiggle=2;curveFitting=1;fontFamily=Architects Daughter;fontSource=https%3A%2F%2Ffonts.googleapis.com%2Fcss%3Ffamily%3DArchitects%2BDaughter;fontSize=20;" vertex="1" parent="1">
          <mxGeometry x="349" y="290" width="150" height="80" as="geometry" />
        </mxCell>
        <mxCell id="ZAcXtEX41ON2BPVNQsae-44" value="" style="endArrow=none;html=1;rounded=0;sketch=1;hachureGap=4;jiggle=2;curveFitting=1;fontFamily=Architects Daughter;fontSource=https%3A%2F%2Ffonts.googleapis.com%2Fcss%3Ffamily%3DArchitects%2BDaughter;fontSize=16;entryX=0;entryY=0.4;entryDx=0;entryDy=0;entryPerimeter=0;exitX=1;exitY=0.5;exitDx=0;exitDy=0;" edge="1" parent="1" source="ZAcXtEX41ON2BPVNQsae-43" target="ZAcXtEX41ON2BPVNQsae-36">
          <mxGeometry width="50" height="50" relative="1" as="geometry">
            <mxPoint x="369" y="700" as="sourcePoint" />
            <mxPoint x="539" y="380" as="targetPoint" />
          </mxGeometry>
        </mxCell>
        <mxCell id="ZAcXtEX41ON2BPVNQsae-45" value="" style="endArrow=none;html=1;rounded=0;sketch=1;hachureGap=4;jiggle=2;curveFitting=1;fontFamily=Architects Daughter;fontSource=https%3A%2F%2Ffonts.googleapis.com%2Fcss%3Ffamily%3DArchitects%2BDaughter;fontSize=16;entryX=1;entryY=1;entryDx=0;entryDy=0;exitX=0;exitY=0.5;exitDx=0;exitDy=0;" edge="1" parent="1" source="ZAcXtEX41ON2BPVNQsae-43" target="ZAcXtEX41ON2BPVNQsae-33">
          <mxGeometry width="50" height="50" relative="1" as="geometry">
            <mxPoint x="509" y="340" as="sourcePoint" />
            <mxPoint x="559" y="390" as="targetPoint" />
          </mxGeometry>
        </mxCell>
        <mxCell id="ZAcXtEX41ON2BPVNQsae-46" value="kiadó" style="rounded=0;whiteSpace=wrap;html=1;sketch=1;hachureGap=4;jiggle=2;curveFitting=1;fontFamily=Architects Daughter;fontSource=https%3A%2F%2Ffonts.googleapis.com%2Fcss%3Ffamily%3DArchitects%2BDaughter;fontSize=20;" vertex="1" parent="1">
          <mxGeometry x="614" y="590" width="110" height="60" as="geometry" />
        </mxCell>
        <mxCell id="ZAcXtEX41ON2BPVNQsae-47" value="név" style="ellipse;whiteSpace=wrap;html=1;sketch=1;hachureGap=4;jiggle=2;curveFitting=1;fontFamily=Architects Daughter;fontSource=https%3A%2F%2Ffonts.googleapis.com%2Fcss%3Ffamily%3DArchitects%2BDaughter;fontSize=20;" vertex="1" parent="1">
          <mxGeometry x="710" y="690" width="80" height="40" as="geometry" />
        </mxCell>
        <mxCell id="ZAcXtEX41ON2BPVNQsae-48" value="&lt;u&gt;id&lt;/u&gt;" style="ellipse;whiteSpace=wrap;html=1;sketch=1;hachureGap=4;jiggle=2;curveFitting=1;fontFamily=Architects Daughter;fontSource=https%3A%2F%2Ffonts.googleapis.com%2Fcss%3Ffamily%3DArchitects%2BDaughter;fontSize=20;" vertex="1" parent="1">
          <mxGeometry x="740" y="605" width="70" height="45" as="geometry" />
        </mxCell>
        <mxCell id="ZAcXtEX41ON2BPVNQsae-49" value="kötés" style="ellipse;whiteSpace=wrap;html=1;sketch=1;hachureGap=4;jiggle=2;curveFitting=1;fontFamily=Architects Daughter;fontSource=https%3A%2F%2Ffonts.googleapis.com%2Fcss%3Ffamily%3DArchitects%2BDaughter;fontSize=20;" vertex="1" parent="1">
          <mxGeometry x="599" y="710" width="90" height="60" as="geometry" />
        </mxCell>
        <mxCell id="ZAcXtEX41ON2BPVNQsae-50" value="" style="endArrow=none;html=1;rounded=0;sketch=1;hachureGap=4;jiggle=2;curveFitting=1;fontFamily=Architects Daughter;fontSource=https%3A%2F%2Ffonts.googleapis.com%2Fcss%3Ffamily%3DArchitects%2BDaughter;fontSize=16;entryX=1;entryY=0.5;entryDx=0;entryDy=0;exitX=0.314;exitY=0;exitDx=0;exitDy=0;exitPerimeter=0;" edge="1" parent="1" source="ZAcXtEX41ON2BPVNQsae-48" target="ZAcXtEX41ON2BPVNQsae-46">
          <mxGeometry width="50" height="50" relative="1" as="geometry">
            <mxPoint x="699" y="470" as="sourcePoint" />
            <mxPoint x="669" y="420" as="targetPoint" />
          </mxGeometry>
        </mxCell>
        <mxCell id="ZAcXtEX41ON2BPVNQsae-51" value="" style="endArrow=none;html=1;rounded=0;sketch=1;hachureGap=4;jiggle=2;curveFitting=1;fontFamily=Architects Daughter;fontSource=https%3A%2F%2Ffonts.googleapis.com%2Fcss%3Ffamily%3DArchitects%2BDaughter;fontSize=16;entryX=1;entryY=1;entryDx=0;entryDy=0;exitX=0.5;exitY=0;exitDx=0;exitDy=0;" edge="1" parent="1" source="ZAcXtEX41ON2BPVNQsae-47" target="ZAcXtEX41ON2BPVNQsae-46">
          <mxGeometry width="50" height="50" relative="1" as="geometry">
            <mxPoint x="659" y="750" as="sourcePoint" />
            <mxPoint x="679" y="650" as="targetPoint" />
          </mxGeometry>
        </mxCell>
        <mxCell id="ZAcXtEX41ON2BPVNQsae-52" value="" style="endArrow=none;html=1;rounded=0;sketch=1;hachureGap=4;jiggle=2;curveFitting=1;fontFamily=Architects Daughter;fontSource=https%3A%2F%2Ffonts.googleapis.com%2Fcss%3Ffamily%3DArchitects%2BDaughter;fontSize=16;entryX=1;entryY=0;entryDx=0;entryDy=0;exitX=0.118;exitY=1.017;exitDx=0;exitDy=0;exitPerimeter=0;" edge="1" parent="1" target="ZAcXtEX41ON2BPVNQsae-49" source="ZAcXtEX41ON2BPVNQsae-46">
          <mxGeometry width="50" height="50" relative="1" as="geometry">
            <mxPoint x="569" y="680" as="sourcePoint" />
            <mxPoint x="679" y="680" as="targetPoint" />
          </mxGeometry>
        </mxCell>
        <mxCell id="ZAcXtEX41ON2BPVNQsae-53" value="kiadta a" style="rhombus;whiteSpace=wrap;html=1;sketch=1;hachureGap=4;jiggle=2;curveFitting=1;fontFamily=Architects Daughter;fontSource=https%3A%2F%2Ffonts.googleapis.com%2Fcss%3Ffamily%3DArchitects%2BDaughter;fontSize=20;" vertex="1" parent="1">
          <mxGeometry x="599" y="460" width="90" height="120" as="geometry" />
        </mxCell>
        <mxCell id="ZAcXtEX41ON2BPVNQsae-54" value="" style="endArrow=none;html=1;rounded=0;sketch=1;hachureGap=4;jiggle=2;curveFitting=1;fontFamily=Architects Daughter;fontSource=https%3A%2F%2Ffonts.googleapis.com%2Fcss%3Ffamily%3DArchitects%2BDaughter;fontSize=16;entryX=0.5;entryY=1;entryDx=0;entryDy=0;exitX=0.75;exitY=0;exitDx=0;exitDy=0;" edge="1" parent="1" source="ZAcXtEX41ON2BPVNQsae-46" target="ZAcXtEX41ON2BPVNQsae-53">
          <mxGeometry width="50" height="50" relative="1" as="geometry">
            <mxPoint x="664" y="770" as="sourcePoint" />
            <mxPoint x="679" y="680" as="targetPoint" />
          </mxGeometry>
        </mxCell>
        <mxCell id="ZAcXtEX41ON2BPVNQsae-55" value="" style="endArrow=none;html=1;rounded=0;sketch=1;hachureGap=4;jiggle=2;curveFitting=1;fontFamily=Architects Daughter;fontSource=https%3A%2F%2Ffonts.googleapis.com%2Fcss%3Ffamily%3DArchitects%2BDaughter;fontSize=16;entryX=0.873;entryY=1.02;entryDx=0;entryDy=0;exitX=0.5;exitY=0;exitDx=0;exitDy=0;entryPerimeter=0;" edge="1" parent="1" source="ZAcXtEX41ON2BPVNQsae-53" target="ZAcXtEX41ON2BPVNQsae-36">
          <mxGeometry width="50" height="50" relative="1" as="geometry">
            <mxPoint x="652" y="620" as="sourcePoint" />
            <mxPoint x="654" y="590" as="targetPoint" />
          </mxGeometry>
        </mxCell>
        <mxCell id="ZAcXtEX41ON2BPVNQsae-56" value="forditó" style="rounded=0;whiteSpace=wrap;html=1;sketch=1;hachureGap=4;jiggle=2;curveFitting=1;fontFamily=Architects Daughter;fontSource=https%3A%2F%2Ffonts.googleapis.com%2Fcss%3Ffamily%3DArchitects%2BDaughter;fontSize=20;" vertex="1" parent="1">
          <mxGeometry x="559" y="60" width="120" height="60" as="geometry" />
        </mxCell>
        <mxCell id="ZAcXtEX41ON2BPVNQsae-57" value="név" style="ellipse;whiteSpace=wrap;html=1;sketch=1;hachureGap=4;jiggle=2;curveFitting=1;fontFamily=Architects Daughter;fontSource=https%3A%2F%2Ffonts.googleapis.com%2Fcss%3Ffamily%3DArchitects%2BDaughter;fontSize=20;" vertex="1" parent="1">
          <mxGeometry x="730" y="20" width="80" height="40" as="geometry" />
        </mxCell>
        <mxCell id="ZAcXtEX41ON2BPVNQsae-58" value="&lt;u&gt;id&lt;/u&gt;" style="ellipse;whiteSpace=wrap;html=1;sketch=1;hachureGap=4;jiggle=2;curveFitting=1;fontFamily=Architects Daughter;fontSource=https%3A%2F%2Ffonts.googleapis.com%2Fcss%3Ffamily%3DArchitects%2BDaughter;fontSize=20;" vertex="1" parent="1">
          <mxGeometry x="709" y="100" width="70" height="45" as="geometry" />
        </mxCell>
        <mxCell id="ZAcXtEX41ON2BPVNQsae-59" value="" style="endArrow=none;html=1;rounded=0;sketch=1;hachureGap=4;jiggle=2;curveFitting=1;fontFamily=Architects Daughter;fontSource=https%3A%2F%2Ffonts.googleapis.com%2Fcss%3Ffamily%3DArchitects%2BDaughter;fontSize=16;entryX=1;entryY=0;entryDx=0;entryDy=0;exitX=0;exitY=1;exitDx=0;exitDy=0;" edge="1" parent="1" source="ZAcXtEX41ON2BPVNQsae-57" target="ZAcXtEX41ON2BPVNQsae-56">
          <mxGeometry width="50" height="50" relative="1" as="geometry">
            <mxPoint x="714" y="338" as="sourcePoint" />
            <mxPoint x="669" y="395" as="targetPoint" />
          </mxGeometry>
        </mxCell>
        <mxCell id="ZAcXtEX41ON2BPVNQsae-60" value="" style="endArrow=none;html=1;rounded=0;sketch=1;hachureGap=4;jiggle=2;curveFitting=1;fontFamily=Architects Daughter;fontSource=https%3A%2F%2Ffonts.googleapis.com%2Fcss%3Ffamily%3DArchitects%2BDaughter;fontSize=16;exitX=0.043;exitY=0.778;exitDx=0;exitDy=0;entryX=0.95;entryY=0.983;entryDx=0;entryDy=0;entryPerimeter=0;exitPerimeter=0;" edge="1" parent="1" source="ZAcXtEX41ON2BPVNQsae-58" target="ZAcXtEX41ON2BPVNQsae-56">
          <mxGeometry width="50" height="50" relative="1" as="geometry">
            <mxPoint x="716" y="64" as="sourcePoint" />
            <mxPoint x="680" y="120" as="targetPoint" />
          </mxGeometry>
        </mxCell>
        <mxCell id="ZAcXtEX41ON2BPVNQsae-61" value="forditotta" style="rhombus;whiteSpace=wrap;html=1;sketch=1;hachureGap=4;jiggle=2;curveFitting=1;fontFamily=Architects Daughter;fontSource=https%3A%2F%2Ffonts.googleapis.com%2Fcss%3Ffamily%3DArchitects%2BDaughter;fontSize=20;" vertex="1" parent="1">
          <mxGeometry x="566" y="170" width="106" height="160" as="geometry" />
        </mxCell>
        <mxCell id="ZAcXtEX41ON2BPVNQsae-62" value="" style="endArrow=none;html=1;rounded=0;sketch=1;hachureGap=4;jiggle=2;curveFitting=1;fontFamily=Architects Daughter;fontSource=https%3A%2F%2Ffonts.googleapis.com%2Fcss%3Ffamily%3DArchitects%2BDaughter;fontSize=16;entryX=0.519;entryY=0.05;entryDx=0;entryDy=0;exitX=0.5;exitY=1;exitDx=0;exitDy=0;entryPerimeter=0;" edge="1" parent="1" source="ZAcXtEX41ON2BPVNQsae-56" target="ZAcXtEX41ON2BPVNQsae-61">
          <mxGeometry width="50" height="50" relative="1" as="geometry">
            <mxPoint x="714" y="338" as="sourcePoint" />
            <mxPoint x="669" y="395" as="targetPoint" />
          </mxGeometry>
        </mxCell>
        <mxCell id="ZAcXtEX41ON2BPVNQsae-63" value="" style="endArrow=none;html=1;rounded=0;sketch=1;hachureGap=4;jiggle=2;curveFitting=1;fontFamily=Architects Daughter;fontSource=https%3A%2F%2Ffonts.googleapis.com%2Fcss%3Ffamily%3DArchitects%2BDaughter;fontSize=16;entryX=0.636;entryY=-0.08;entryDx=0;entryDy=0;entryPerimeter=0;exitX=0.5;exitY=1;exitDx=0;exitDy=0;" edge="1" parent="1" source="ZAcXtEX41ON2BPVNQsae-61" target="ZAcXtEX41ON2BPVNQsae-36">
          <mxGeometry width="50" height="50" relative="1" as="geometry">
            <mxPoint x="620" y="330" as="sourcePoint" />
            <mxPoint x="620" y="340" as="targetPoint" />
          </mxGeometry>
        </mxCell>
        <mxCell id="ZAcXtEX41ON2BPVNQsae-73" value="1" style="text;html=1;strokeColor=none;fillColor=none;align=center;verticalAlign=middle;whiteSpace=wrap;rounded=0;fontSize=20;fontFamily=Architects Daughter;" vertex="1" parent="1">
          <mxGeometry x="584" y="420" width="60" height="30" as="geometry" />
        </mxCell>
        <mxCell id="ZAcXtEX41ON2BPVNQsae-74" value="n" style="text;html=1;strokeColor=none;fillColor=none;align=center;verticalAlign=middle;whiteSpace=wrap;rounded=0;fontSize=20;fontFamily=Architects Daughter;" vertex="1" parent="1">
          <mxGeometry x="574" y="560" width="60" height="30" as="geometry" />
        </mxCell>
        <mxCell id="ZAcXtEX41ON2BPVNQsae-75" value="1" style="text;html=1;strokeColor=none;fillColor=none;align=center;verticalAlign=middle;whiteSpace=wrap;rounded=0;fontSize=20;fontFamily=Architects Daughter;" vertex="1" parent="1">
          <mxGeometry x="624" y="315" width="60" height="30" as="geometry" />
        </mxCell>
        <mxCell id="ZAcXtEX41ON2BPVNQsae-76" value="n" style="text;html=1;strokeColor=none;fillColor=none;align=center;verticalAlign=middle;whiteSpace=wrap;rounded=0;fontSize=20;fontFamily=Architects Daughter;" vertex="1" parent="1">
          <mxGeometry x="624" y="145" width="60" height="30" as="geometry" />
        </mxCell>
        <mxCell id="ZAcXtEX41ON2BPVNQsae-79" value="1" style="text;html=1;strokeColor=none;fillColor=none;align=center;verticalAlign=middle;whiteSpace=wrap;rounded=0;fontSize=20;fontFamily=Architects Daughter;" vertex="1" parent="1">
          <mxGeometry x="300" y="345" width="60" height="30" as="geometry" />
        </mxCell>
        <mxCell id="ZAcXtEX41ON2BPVNQsae-80" value="n" style="text;html=1;strokeColor=none;fillColor=none;align=center;verticalAlign=middle;whiteSpace=wrap;rounded=0;fontSize=20;fontFamily=Architects Daughter;" vertex="1" parent="1">
          <mxGeometry x="474" y="340" width="60" height="30" as="geometry" />
        </mxCell>
        <mxCell id="ZAcXtEX41ON2BPVNQsae-83" value="költő" style="swimlane;fontStyle=0;childLayout=stackLayout;horizontal=1;startSize=30;horizontalStack=0;resizeParent=1;resizeParentMax=0;resizeLast=0;collapsible=1;marginBottom=0;whiteSpace=wrap;html=1;sketch=1;hachureGap=4;jiggle=2;curveFitting=1;fontFamily=Architects Daughter;fontSource=https%3A%2F%2Ffonts.googleapis.com%2Fcss%3Ffamily%3DArchitects%2BDaughter;fontSize=20;" vertex="1" parent="1">
          <mxGeometry x="24" y="610" width="140" height="90" as="geometry" />
        </mxCell>
        <mxCell id="ZAcXtEX41ON2BPVNQsae-84" value="név" style="text;strokeColor=none;fillColor=none;align=left;verticalAlign=middle;spacingLeft=4;spacingRight=4;overflow=hidden;points=[[0,0.5],[1,0.5]];portConstraint=eastwest;rotatable=0;whiteSpace=wrap;html=1;fontSize=20;fontFamily=Architects Daughter;" vertex="1" parent="ZAcXtEX41ON2BPVNQsae-83">
          <mxGeometry y="30" width="140" height="30" as="geometry" />
        </mxCell>
        <mxCell id="ZAcXtEX41ON2BPVNQsae-86" value="&lt;u&gt;id&lt;/u&gt;" style="text;strokeColor=default;fillColor=none;align=left;verticalAlign=middle;spacingLeft=4;spacingRight=4;overflow=hidden;points=[[0,0.5],[1,0.5]];portConstraint=eastwest;rotatable=0;whiteSpace=wrap;html=1;fontSize=20;fontFamily=Architects Daughter;perimeterSpacing=0;" vertex="1" parent="ZAcXtEX41ON2BPVNQsae-83">
          <mxGeometry y="60" width="140" height="30" as="geometry" />
        </mxCell>
        <mxCell id="ZAcXtEX41ON2BPVNQsae-87" value="költemény" style="swimlane;fontStyle=0;childLayout=stackLayout;horizontal=1;startSize=30;horizontalStack=0;resizeParent=1;resizeParentMax=0;resizeLast=0;collapsible=1;marginBottom=0;whiteSpace=wrap;html=1;sketch=1;hachureGap=4;jiggle=2;curveFitting=1;fontFamily=Architects Daughter;fontSource=https%3A%2F%2Ffonts.googleapis.com%2Fcss%3Ffamily%3DArchitects%2BDaughter;fontSize=20;" vertex="1" parent="1">
          <mxGeometry x="230" y="610" width="140" height="90" as="geometry">
            <mxRectangle x="230" y="610" width="130" height="40" as="alternateBounds" />
          </mxGeometry>
        </mxCell>
        <mxCell id="ZAcXtEX41ON2BPVNQsae-88" value="nev" style="text;strokeColor=none;fillColor=none;align=left;verticalAlign=middle;spacingLeft=4;spacingRight=4;overflow=hidden;points=[[0,0.5],[1,0.5]];portConstraint=eastwest;rotatable=0;whiteSpace=wrap;html=1;fontSize=20;fontFamily=Architects Daughter;" vertex="1" parent="ZAcXtEX41ON2BPVNQsae-87">
          <mxGeometry y="30" width="140" height="30" as="geometry" />
        </mxCell>
        <mxCell id="ZAcXtEX41ON2BPVNQsae-90" value="müfaj" style="text;strokeColor=none;fillColor=none;align=left;verticalAlign=middle;spacingLeft=4;spacingRight=4;overflow=hidden;points=[[0,0.5],[1,0.5]];portConstraint=eastwest;rotatable=0;whiteSpace=wrap;html=1;fontSize=20;fontFamily=Architects Daughter;" vertex="1" parent="ZAcXtEX41ON2BPVNQsae-87">
          <mxGeometry y="60" width="140" height="30" as="geometry" />
        </mxCell>
        <mxCell id="ZAcXtEX41ON2BPVNQsae-92" value="" style="endArrow=classic;html=1;rounded=0;sketch=1;hachureGap=4;jiggle=2;curveFitting=1;fontFamily=Architects Daughter;fontSource=https%3A%2F%2Ffonts.googleapis.com%2Fcss%3Ffamily%3DArchitects%2BDaughter;fontSize=16;exitX=1;exitY=0.25;exitDx=0;exitDy=0;entryX=0;entryY=0.25;entryDx=0;entryDy=0;" edge="1" parent="1" source="ZAcXtEX41ON2BPVNQsae-83" target="ZAcXtEX41ON2BPVNQsae-87">
          <mxGeometry width="50" height="50" relative="1" as="geometry">
            <mxPoint x="390" y="540" as="sourcePoint" />
            <mxPoint x="440" y="490" as="targetPoint" />
          </mxGeometry>
        </mxCell>
        <mxCell id="ZAcXtEX41ON2BPVNQsae-93" value="kiadó" style="swimlane;fontStyle=0;childLayout=stackLayout;horizontal=1;startSize=30;horizontalStack=0;resizeParent=1;resizeParentMax=0;resizeLast=0;collapsible=1;marginBottom=0;whiteSpace=wrap;html=1;sketch=1;hachureGap=4;jiggle=2;curveFitting=1;fontFamily=Architects Daughter;fontSource=https%3A%2F%2Ffonts.googleapis.com%2Fcss%3Ffamily%3DArchitects%2BDaughter;fontSize=20;" vertex="1" parent="1">
          <mxGeometry x="429" y="610" width="120" height="120" as="geometry" />
        </mxCell>
        <mxCell id="ZAcXtEX41ON2BPVNQsae-94" value="név" style="text;strokeColor=none;fillColor=none;align=left;verticalAlign=middle;spacingLeft=4;spacingRight=4;overflow=hidden;points=[[0,0.5],[1,0.5]];portConstraint=eastwest;rotatable=0;whiteSpace=wrap;html=1;fontSize=20;fontFamily=Architects Daughter;" vertex="1" parent="ZAcXtEX41ON2BPVNQsae-93">
          <mxGeometry y="30" width="120" height="30" as="geometry" />
        </mxCell>
        <mxCell id="ZAcXtEX41ON2BPVNQsae-95" value="kötés" style="text;strokeColor=none;fillColor=none;align=left;verticalAlign=middle;spacingLeft=4;spacingRight=4;overflow=hidden;points=[[0,0.5],[1,0.5]];portConstraint=eastwest;rotatable=0;whiteSpace=wrap;html=1;fontSize=20;fontFamily=Architects Daughter;" vertex="1" parent="ZAcXtEX41ON2BPVNQsae-93">
          <mxGeometry y="60" width="120" height="30" as="geometry" />
        </mxCell>
        <mxCell id="ZAcXtEX41ON2BPVNQsae-96" value="&lt;u&gt;id&lt;/u&gt;" style="text;strokeColor=default;fillColor=none;align=left;verticalAlign=middle;spacingLeft=4;spacingRight=4;overflow=hidden;points=[[0,0.5],[1,0.5]];portConstraint=eastwest;rotatable=0;whiteSpace=wrap;html=1;fontSize=20;fontFamily=Architects Daughter;" vertex="1" parent="ZAcXtEX41ON2BPVNQsae-93">
          <mxGeometry y="90" width="120" height="30" as="geometry" />
        </mxCell>
        <mxCell id="ZAcXtEX41ON2BPVNQsae-97" value="" style="endArrow=classic;html=1;rounded=0;sketch=1;hachureGap=4;jiggle=2;curveFitting=1;fontFamily=Architects Daughter;fontSource=https%3A%2F%2Ffonts.googleapis.com%2Fcss%3Ffamily%3DArchitects%2BDaughter;fontSize=16;exitX=-0.017;exitY=0.15;exitDx=0;exitDy=0;entryX=1.007;entryY=0.167;entryDx=0;entryDy=0;exitPerimeter=0;entryPerimeter=0;" edge="1" parent="1" source="ZAcXtEX41ON2BPVNQsae-93" target="ZAcXtEX41ON2BPVNQsae-87">
          <mxGeometry width="50" height="50" relative="1" as="geometry">
            <mxPoint x="174" y="643" as="sourcePoint" />
            <mxPoint x="240" y="643" as="targetPoint" />
          </mxGeometry>
        </mxCell>
        <mxCell id="ZAcXtEX41ON2BPVNQsae-100" value="&lt;u&gt;isbn&lt;/u&gt;" style="rounded=0;whiteSpace=wrap;html=1;sketch=1;hachureGap=4;jiggle=2;curveFitting=1;fontFamily=Architects Daughter;fontSource=https%3A%2F%2Ffonts.googleapis.com%2Fcss%3Ffamily%3DArchitects%2BDaughter;fontSize=20;align=left;" vertex="1" parent="1">
          <mxGeometry x="230" y="700" width="140" height="30" as="geometry" />
        </mxCell>
        <mxCell id="ZAcXtEX41ON2BPVNQsae-101" value="müfaj" style="ellipse;whiteSpace=wrap;html=1;sketch=1;hachureGap=4;jiggle=2;curveFitting=1;fontFamily=Architects Daughter;fontSource=https%3A%2F%2Ffonts.googleapis.com%2Fcss%3Ffamily%3DArchitects%2BDaughter;fontSize=20;" vertex="1" parent="1">
          <mxGeometry x="699" y="370" width="80" height="40" as="geometry" />
        </mxCell>
        <mxCell id="ZAcXtEX41ON2BPVNQsae-102" value="" style="endArrow=none;html=1;rounded=0;sketch=1;hachureGap=4;jiggle=2;curveFitting=1;fontFamily=Architects Daughter;fontSource=https%3A%2F%2Ffonts.googleapis.com%2Fcss%3Ffamily%3DArchitects%2BDaughter;fontSize=16;entryX=1;entryY=0.75;entryDx=0;entryDy=0;exitX=-0.025;exitY=0.725;exitDx=0;exitDy=0;exitPerimeter=0;" edge="1" parent="1" source="ZAcXtEX41ON2BPVNQsae-101" target="ZAcXtEX41ON2BPVNQsae-36">
          <mxGeometry width="50" height="50" relative="1" as="geometry">
            <mxPoint x="699" y="470" as="sourcePoint" />
            <mxPoint x="669" y="420" as="targetPoint" />
          </mxGeometry>
        </mxCell>
        <mxCell id="ZAcXtEX41ON2BPVNQsae-103" value="forditó" style="swimlane;fontStyle=0;childLayout=stackLayout;horizontal=1;startSize=30;horizontalStack=0;resizeParent=1;resizeParentMax=0;resizeLast=0;collapsible=1;marginBottom=0;whiteSpace=wrap;html=1;sketch=1;hachureGap=4;jiggle=2;curveFitting=1;fontFamily=Architects Daughter;fontSource=https%3A%2F%2Ffonts.googleapis.com%2Fcss%3Ffamily%3DArchitects%2BDaughter;fontSize=20;strokeColor=default;" vertex="1" parent="1">
          <mxGeometry x="274" y="440" width="140" height="90" as="geometry" />
        </mxCell>
        <mxCell id="ZAcXtEX41ON2BPVNQsae-104" value="név" style="text;strokeColor=none;fillColor=none;align=left;verticalAlign=middle;spacingLeft=4;spacingRight=4;overflow=hidden;points=[[0,0.5],[1,0.5]];portConstraint=eastwest;rotatable=0;whiteSpace=wrap;html=1;fontSize=20;fontFamily=Architects Daughter;" vertex="1" parent="ZAcXtEX41ON2BPVNQsae-103">
          <mxGeometry y="30" width="140" height="30" as="geometry" />
        </mxCell>
        <mxCell id="ZAcXtEX41ON2BPVNQsae-106" value="&lt;u style=&quot;&quot;&gt;id&lt;/u&gt;" style="text;strokeColor=default;fillColor=none;align=left;verticalAlign=middle;spacingLeft=4;spacingRight=4;overflow=hidden;points=[[0,0.5],[1,0.5]];portConstraint=eastwest;rotatable=0;whiteSpace=wrap;html=1;fontSize=20;fontFamily=Architects Daughter;" vertex="1" parent="ZAcXtEX41ON2BPVNQsae-103">
          <mxGeometry y="60" width="140" height="30" as="geometry" />
        </mxCell>
        <mxCell id="ZAcXtEX41ON2BPVNQsae-108" value="" style="endArrow=classic;html=1;rounded=0;sketch=1;hachureGap=4;jiggle=2;curveFitting=1;fontFamily=Architects Daughter;fontSource=https%3A%2F%2Ffonts.googleapis.com%2Fcss%3Ffamily%3DArchitects%2BDaughter;fontSize=16;exitX=-0.007;exitY=0.122;exitDx=0;exitDy=0;entryX=0.179;entryY=-0.011;entryDx=0;entryDy=0;exitPerimeter=0;entryPerimeter=0;" edge="1" parent="1" source="ZAcXtEX41ON2BPVNQsae-103" target="ZAcXtEX41ON2BPVNQsae-87">
          <mxGeometry width="50" height="50" relative="1" as="geometry">
            <mxPoint x="437" y="638" as="sourcePoint" />
            <mxPoint x="381" y="635" as="targetPoint" />
          </mxGeometry>
        </mxCell>
        <mxCell id="ZAcXtEX41ON2BPVNQsae-109" value="1" style="text;html=1;strokeColor=none;fillColor=none;align=center;verticalAlign=middle;whiteSpace=wrap;rounded=0;fontSize=20;fontFamily=Architects Daughter;" vertex="1" parent="1">
          <mxGeometry x="240" y="570" width="60" height="30" as="geometry" />
        </mxCell>
        <mxCell id="ZAcXtEX41ON2BPVNQsae-110" value="n" style="text;html=1;strokeColor=none;fillColor=none;align=center;verticalAlign=middle;whiteSpace=wrap;rounded=0;fontSize=20;fontFamily=Architects Daughter;" vertex="1" parent="1">
          <mxGeometry x="220" y="440" width="60" height="30" as="geometry" />
        </mxCell>
        <mxCell id="ZAcXtEX41ON2BPVNQsae-111" value="n" style="text;html=1;strokeColor=none;fillColor=none;align=center;verticalAlign=middle;whiteSpace=wrap;rounded=0;fontSize=20;fontFamily=Architects Daughter;" vertex="1" parent="1">
          <mxGeometry x="410" y="580" width="60" height="30" as="geometry" />
        </mxCell>
        <mxCell id="ZAcXtEX41ON2BPVNQsae-112" value="1" style="text;html=1;strokeColor=none;fillColor=none;align=center;verticalAlign=middle;whiteSpace=wrap;rounded=0;fontSize=20;fontFamily=Architects Daughter;" vertex="1" parent="1">
          <mxGeometry x="340" y="580" width="60" height="30" as="geometry" />
        </mxCell>
        <mxCell id="ZAcXtEX41ON2BPVNQsae-113" value="1" style="text;html=1;strokeColor=none;fillColor=none;align=center;verticalAlign=middle;whiteSpace=wrap;rounded=0;fontSize=20;fontFamily=Architects Daughter;" vertex="1" parent="1">
          <mxGeometry x="140" y="575" width="60" height="30" as="geometry" />
        </mxCell>
        <mxCell id="ZAcXtEX41ON2BPVNQsae-114" value="n" style="text;html=1;strokeColor=none;fillColor=none;align=center;verticalAlign=middle;whiteSpace=wrap;rounded=0;fontSize=20;fontFamily=Architects Daughter;" vertex="1" parent="1">
          <mxGeometry x="209" y="575" width="60" height="30" as="geometry" />
        </mxCell>
      </root>
    </mxGraphModel>
  </diagram>
</mxfile>
